<?xml version="1.0" standalone="yes"?>
<svg xmlns="http://www.w3.org/2000/svg" width="1024" height="1024">
<path style="fill:#fdfeff; stroke:none;" d="M0 0L0 2L770 2L959 2L1006 2C1009.96 2 1018.92 0.361328 1021.74 3.82166C1024.83 7.60522 1023 17.3829 1023 22L1023 72L1023 267L1023 1024C1029.84 1003.81 1024 972.382 1024 951L1024 787L1024 239L1024 59L1024 15C1024 11.6199 1025.55 2.9519 1022.18 0.821655C1017.52 -2.12646 1006.39 0 1001 0L948 0L748 0L0 0z"/>
<path style="fill:#0979ff; stroke:none;" d="M1.25977 3.25977C-5.32699 9.84656 0 44.522 0 54L0 204L0 801L0 967C0 977.277 -5.83571 1015.64 1.25977 1022.74C8.35525 1029.84 46.7234 1024 57 1024L223 1024L821 1024L971 1024C980.478 1024 1015.15 1029.33 1021.74 1022.74C1028.84 1015.64 1023 977.277 1023 967L1023 801L1023 204L1023 54C1023 44.522 1028.33 9.8465 1021.74 3.25977C1015.15 -3.32703 980.478 2 971 2L821 2L223 2L57 2C46.7234 2 8.35526 -3.83569 1.25977 3.25977z"/>
<path style="fill:#fdfeff; stroke:none;" d="M391 217C397.827 243.978 386.97 274.071 397.538 301C405.256 320.667 429.252 322.09 442.856 307.951C466.558 283.317 469.984 243.135 491 217C490.987 243.307 486.146 269.692 486.003 296C485.957 304.417 483.483 317.297 490.206 323.654C509.632 342.023 548.59 334.784 568.732 354.317C584.048 369.169 578.079 394.6 600 406.118C632.443 423.164 673.992 431.19 709 442.043C715.052 443.919 743.315 449.647 744.211 456.346C745.878 468.807 732.189 491.102 726.739 502C698.235 559.002 653.645 570.509 595 558.144C558.354 550.418 499.277 532.665 483.021 581C474.484 606.383 480.965 636.67 486.738 662C496.918 706.672 508.966 750.452 523.335 794C528.425 809.424 531.438 829.569 540.966 842.951C546.728 851.043 558.53 852.277 562.834 841.99C569.53 825.984 553.045 797.467 548.438 782C534.739 736.008 517.901 690.525 510.084 643C507.512 627.366 502.263 601.593 510.162 587.019C517.051 574.307 531.393 573.633 544 575.449C572.137 579.502 599.675 586.948 628 589.904C701.093 597.533 767.694 528.202 772.863 456C775 426.15 728.694 420.538 707 413.725C680.64 405.447 633.814 398.854 613.049 380.683C597.304 366.906 600.46 342.634 581.997 329.626C563.536 316.62 534.897 318.143 518.206 304.24C509.359 296.87 514.881 277.027 514.992 267C515.274 241.673 514.998 216.328 515 191C515.001 180.56 518.336 167.819 513.28 158.051C503.955 140.036 488.732 160.45 484.335 170C465.95 209.941 438.605 248.745 424 290C418.718 282.97 419.519 271.439 418.562 263C415.757 238.277 415.022 211.883 415 187C414.99 175.482 418.684 155.752 407.815 147.899C394.81 138.503 386.122 156.388 382.206 166C369.047 198.298 356.334 230.783 342.978 263C330.813 292.345 314.117 321.25 309.478 353C307.324 367.744 317.574 382.901 313.506 397C307.348 418.342 294.903 439.042 287.058 460C268.193 510.402 252.007 562.955 242.633 616C237.566 644.674 232.285 673.294 227.261 702C225.659 711.155 223.304 726.624 235.008 730.175C249.584 734.598 252.016 714.195 254.002 705C260.872 673.19 264.798 640.823 271.68 609C281.788 562.259 295.174 515.744 312.06 471C320.793 447.861 333.351 425.545 340.725 402C346.245 384.371 332.72 367.475 337.043 350C348.357 304.261 374.689 261.166 391 217M535 387.447C493.903 392.468 515.168 428.643 548 424.761C574.533 421.623 557.896 384.649 535 387.447z"/>
</svg>
